<mxfile host="app.diagrams.net" modified="2023-11-09T11:01:49.681Z" agent="Mozilla/5.0 (Windows NT 10.0; Win64; x64) AppleWebKit/537.36 (KHTML, like Gecko) Chrome/119.0.0.0 Safari/537.36" etag="5gVcJHdAZFlvDPZ0G7M4" version="22.1.0" type="device">
  <diagram name="Page-1" id="Cizgp2ytPglUclTyzPHs">
    <mxGraphModel dx="1047" dy="853" grid="1" gridSize="10" guides="1" tooltips="1" connect="1" arrows="1" fold="1" page="1" pageScale="1" pageWidth="1169" pageHeight="827" math="1" shadow="0">
      <root>
        <mxCell id="0" />
        <mxCell id="1" parent="0" />
        <mxCell id="hJOSt7ZwOHZE09GMLPBg-1" value="" style="rounded=0;whiteSpace=wrap;html=1;fillColor=#F2F2F2;strokeColor=#000000;" parent="1" vertex="1">
          <mxGeometry x="40" y="40" width="300" height="300" as="geometry" />
        </mxCell>
        <mxCell id="hJOSt7ZwOHZE09GMLPBg-2" value="" style="rounded=0;whiteSpace=wrap;html=1;fillColor=#F2F2F2;" parent="1" vertex="1">
          <mxGeometry x="340" y="40" width="300" height="300" as="geometry" />
        </mxCell>
        <mxCell id="hJOSt7ZwOHZE09GMLPBg-3" value="" style="rounded=0;whiteSpace=wrap;html=1;fillColor=#F2F2F2;" parent="1" vertex="1">
          <mxGeometry x="640" y="40" width="300" height="300" as="geometry" />
        </mxCell>
        <mxCell id="hJOSt7ZwOHZE09GMLPBg-25" style="edgeStyle=orthogonalEdgeStyle;rounded=0;orthogonalLoop=1;jettySize=auto;html=1;exitX=0.5;exitY=1;exitDx=0;exitDy=0;entryX=0;entryY=0.5;entryDx=0;entryDy=0;" parent="1" source="hJOSt7ZwOHZE09GMLPBg-5" target="hJOSt7ZwOHZE09GMLPBg-16" edge="1">
          <mxGeometry relative="1" as="geometry">
            <Array as="points">
              <mxPoint x="80" y="180" />
            </Array>
          </mxGeometry>
        </mxCell>
        <mxCell id="hJOSt7ZwOHZE09GMLPBg-26" style="edgeStyle=orthogonalEdgeStyle;rounded=0;orthogonalLoop=1;jettySize=auto;html=1;exitX=0.5;exitY=1;exitDx=0;exitDy=0;entryX=0.75;entryY=0;entryDx=0;entryDy=0;" parent="1" source="hJOSt7ZwOHZE09GMLPBg-5" target="hJOSt7ZwOHZE09GMLPBg-19" edge="1">
          <mxGeometry relative="1" as="geometry">
            <Array as="points">
              <mxPoint x="80" y="120" />
              <mxPoint x="280" y="120" />
            </Array>
          </mxGeometry>
        </mxCell>
        <mxCell id="hJOSt7ZwOHZE09GMLPBg-5" value="$$l$$" style="rounded=0;whiteSpace=wrap;html=1;gradientColor=none;fillColor=#FFCCCC;" parent="1" vertex="1">
          <mxGeometry x="60" y="60" width="40" height="40" as="geometry" />
        </mxCell>
        <mxCell id="hJOSt7ZwOHZE09GMLPBg-34" style="edgeStyle=orthogonalEdgeStyle;rounded=0;orthogonalLoop=1;jettySize=auto;html=1;exitX=0.5;exitY=1;exitDx=0;exitDy=0;entryX=0;entryY=0.5;entryDx=0;entryDy=0;" parent="1" source="hJOSt7ZwOHZE09GMLPBg-6" target="hJOSt7ZwOHZE09GMLPBg-17" edge="1">
          <mxGeometry relative="1" as="geometry" />
        </mxCell>
        <mxCell id="hJOSt7ZwOHZE09GMLPBg-36" style="edgeStyle=orthogonalEdgeStyle;rounded=0;orthogonalLoop=1;jettySize=auto;html=1;exitX=0.5;exitY=1;exitDx=0;exitDy=0;entryX=0.5;entryY=0;entryDx=0;entryDy=0;" parent="1" source="hJOSt7ZwOHZE09GMLPBg-6" target="hJOSt7ZwOHZE09GMLPBg-20" edge="1">
          <mxGeometry relative="1" as="geometry">
            <Array as="points">
              <mxPoint x="380" y="120" />
              <mxPoint x="560" y="120" />
            </Array>
          </mxGeometry>
        </mxCell>
        <mxCell id="hJOSt7ZwOHZE09GMLPBg-6" value="$$l$$" style="rounded=0;whiteSpace=wrap;html=1;fillColor=#FFCCCC;" parent="1" vertex="1">
          <mxGeometry x="360" y="60" width="40" height="40" as="geometry" />
        </mxCell>
        <mxCell id="hJOSt7ZwOHZE09GMLPBg-35" style="edgeStyle=orthogonalEdgeStyle;rounded=0;orthogonalLoop=1;jettySize=auto;html=1;exitX=0.5;exitY=1;exitDx=0;exitDy=0;entryX=0;entryY=0.5;entryDx=0;entryDy=0;" parent="1" source="hJOSt7ZwOHZE09GMLPBg-7" target="hJOSt7ZwOHZE09GMLPBg-18" edge="1">
          <mxGeometry relative="1" as="geometry" />
        </mxCell>
        <mxCell id="hJOSt7ZwOHZE09GMLPBg-37" style="edgeStyle=orthogonalEdgeStyle;rounded=0;orthogonalLoop=1;jettySize=auto;html=1;exitX=0.5;exitY=1;exitDx=0;exitDy=0;entryX=0.75;entryY=0;entryDx=0;entryDy=0;" parent="1" source="hJOSt7ZwOHZE09GMLPBg-7" target="hJOSt7ZwOHZE09GMLPBg-21" edge="1">
          <mxGeometry relative="1" as="geometry">
            <Array as="points">
              <mxPoint x="680" y="120" />
              <mxPoint x="880" y="120" />
            </Array>
          </mxGeometry>
        </mxCell>
        <mxCell id="hJOSt7ZwOHZE09GMLPBg-7" value="$$l$$" style="rounded=0;whiteSpace=wrap;html=1;fillColor=#FFCCCC;" parent="1" vertex="1">
          <mxGeometry x="660" y="60" width="40" height="40" as="geometry" />
        </mxCell>
        <mxCell id="hJOSt7ZwOHZE09GMLPBg-31" style="edgeStyle=orthogonalEdgeStyle;rounded=0;orthogonalLoop=1;jettySize=auto;html=1;exitX=0.5;exitY=1;exitDx=0;exitDy=0;entryX=0.5;entryY=0;entryDx=0;entryDy=0;" parent="1" source="hJOSt7ZwOHZE09GMLPBg-8" target="hJOSt7ZwOHZE09GMLPBg-16" edge="1">
          <mxGeometry relative="1" as="geometry">
            <Array as="points">
              <mxPoint x="220" y="140" />
              <mxPoint x="140" y="140" />
            </Array>
          </mxGeometry>
        </mxCell>
        <mxCell id="hJOSt7ZwOHZE09GMLPBg-33" style="edgeStyle=orthogonalEdgeStyle;rounded=0;orthogonalLoop=1;jettySize=auto;html=1;exitX=0.5;exitY=1;exitDx=0;exitDy=0;entryX=0.25;entryY=0;entryDx=0;entryDy=0;" parent="1" source="hJOSt7ZwOHZE09GMLPBg-8" target="hJOSt7ZwOHZE09GMLPBg-19" edge="1">
          <mxGeometry relative="1" as="geometry">
            <Array as="points">
              <mxPoint x="220" y="140" />
              <mxPoint x="240" y="140" />
            </Array>
          </mxGeometry>
        </mxCell>
        <mxCell id="hJOSt7ZwOHZE09GMLPBg-8" value="$$m$$" style="rounded=0;whiteSpace=wrap;html=1;fillColor=#FFCCCC;" parent="1" vertex="1">
          <mxGeometry x="120" y="60" width="200" height="40" as="geometry" />
        </mxCell>
        <mxCell id="hJOSt7ZwOHZE09GMLPBg-41" style="edgeStyle=orthogonalEdgeStyle;rounded=0;orthogonalLoop=1;jettySize=auto;html=1;exitX=0.5;exitY=1;exitDx=0;exitDy=0;entryX=0.5;entryY=0;entryDx=0;entryDy=0;" parent="1" source="hJOSt7ZwOHZE09GMLPBg-9" target="hJOSt7ZwOHZE09GMLPBg-17" edge="1">
          <mxGeometry relative="1" as="geometry">
            <Array as="points">
              <mxPoint x="520" y="140" />
              <mxPoint x="440" y="140" />
            </Array>
          </mxGeometry>
        </mxCell>
        <mxCell id="hJOSt7ZwOHZE09GMLPBg-9" value="$$m$$" style="rounded=0;whiteSpace=wrap;html=1;fillColor=#FFCCCC;" parent="1" vertex="1">
          <mxGeometry x="420" y="60" width="200" height="40" as="geometry" />
        </mxCell>
        <mxCell id="hJOSt7ZwOHZE09GMLPBg-44" style="edgeStyle=orthogonalEdgeStyle;rounded=0;orthogonalLoop=1;jettySize=auto;html=1;exitX=0.5;exitY=1;exitDx=0;exitDy=0;entryX=0.5;entryY=0;entryDx=0;entryDy=0;" parent="1" source="hJOSt7ZwOHZE09GMLPBg-10" target="hJOSt7ZwOHZE09GMLPBg-18" edge="1">
          <mxGeometry relative="1" as="geometry">
            <Array as="points">
              <mxPoint x="820" y="140" />
              <mxPoint x="740" y="140" />
            </Array>
          </mxGeometry>
        </mxCell>
        <mxCell id="hJOSt7ZwOHZE09GMLPBg-45" style="edgeStyle=orthogonalEdgeStyle;rounded=0;orthogonalLoop=1;jettySize=auto;html=1;exitX=0.5;exitY=1;exitDx=0;exitDy=0;entryX=0.25;entryY=0;entryDx=0;entryDy=0;" parent="1" source="hJOSt7ZwOHZE09GMLPBg-10" target="hJOSt7ZwOHZE09GMLPBg-21" edge="1">
          <mxGeometry relative="1" as="geometry">
            <Array as="points">
              <mxPoint x="820" y="140" />
              <mxPoint x="840" y="140" />
            </Array>
          </mxGeometry>
        </mxCell>
        <mxCell id="hJOSt7ZwOHZE09GMLPBg-10" value="$$m$$" style="rounded=0;whiteSpace=wrap;html=1;fillColor=#FFCCCC;" parent="1" vertex="1">
          <mxGeometry x="720" y="60" width="200" height="40" as="geometry" />
        </mxCell>
        <mxCell id="hJOSt7ZwOHZE09GMLPBg-11" value="$$c$$" style="rounded=0;whiteSpace=wrap;html=1;fillColor=#E6FFCC;" parent="1" vertex="1">
          <mxGeometry x="60" y="280" width="200" height="40" as="geometry" />
        </mxCell>
        <mxCell id="hJOSt7ZwOHZE09GMLPBg-12" value="$$c$$" style="rounded=0;whiteSpace=wrap;html=1;fillColor=#E6FFCC;" parent="1" vertex="1">
          <mxGeometry x="360" y="280" width="200" height="40" as="geometry" />
        </mxCell>
        <mxCell id="hJOSt7ZwOHZE09GMLPBg-13" value="$$c$$" style="rounded=0;whiteSpace=wrap;html=1;fillColor=#E6FFCC;" parent="1" vertex="1">
          <mxGeometry x="660" y="280" width="200" height="40" as="geometry" />
        </mxCell>
        <mxCell id="hJOSt7ZwOHZE09GMLPBg-14" value="$$t$$" style="rounded=0;whiteSpace=wrap;html=1;fillColor=#E6FFCC;" parent="1" vertex="1">
          <mxGeometry x="580" y="280" width="40" height="40" as="geometry" />
        </mxCell>
        <mxCell id="hJOSt7ZwOHZE09GMLPBg-15" value="$$t$$" style="rounded=0;whiteSpace=wrap;html=1;fillColor=#E6FFCC;" parent="1" vertex="1">
          <mxGeometry x="280" y="280" width="40" height="40" as="geometry" />
        </mxCell>
        <mxCell id="hJOSt7ZwOHZE09GMLPBg-30" style="edgeStyle=orthogonalEdgeStyle;rounded=0;orthogonalLoop=1;jettySize=auto;html=1;exitX=0.5;exitY=1;exitDx=0;exitDy=0;entryX=0.5;entryY=0;entryDx=0;entryDy=0;" parent="1" source="hJOSt7ZwOHZE09GMLPBg-16" target="hJOSt7ZwOHZE09GMLPBg-11" edge="1">
          <mxGeometry relative="1" as="geometry" />
        </mxCell>
        <mxCell id="hJOSt7ZwOHZE09GMLPBg-16" value="$$\text{DEM}_{k1}$$" style="rounded=0;whiteSpace=wrap;html=1;fillColor=#CCE5FF;" parent="1" vertex="1">
          <mxGeometry x="100" y="160" width="80" height="40" as="geometry" />
        </mxCell>
        <mxCell id="hJOSt7ZwOHZE09GMLPBg-38" style="edgeStyle=orthogonalEdgeStyle;rounded=0;orthogonalLoop=1;jettySize=auto;html=1;exitX=0.5;exitY=1;exitDx=0;exitDy=0;entryX=0.5;entryY=0;entryDx=0;entryDy=0;" parent="1" source="hJOSt7ZwOHZE09GMLPBg-17" target="hJOSt7ZwOHZE09GMLPBg-12" edge="1">
          <mxGeometry relative="1" as="geometry" />
        </mxCell>
        <mxCell id="hJOSt7ZwOHZE09GMLPBg-42" style="edgeStyle=orthogonalEdgeStyle;rounded=0;orthogonalLoop=1;jettySize=auto;html=1;exitX=1;exitY=0.5;exitDx=0;exitDy=0;entryX=0;entryY=0.5;entryDx=0;entryDy=0;" parent="1" source="hJOSt7ZwOHZE09GMLPBg-17" target="hJOSt7ZwOHZE09GMLPBg-20" edge="1">
          <mxGeometry relative="1" as="geometry" />
        </mxCell>
        <mxCell id="hJOSt7ZwOHZE09GMLPBg-17" value="$$\text{DEM}_{k1}$$" style="rounded=0;whiteSpace=wrap;html=1;fillColor=#CCE5FF;" parent="1" vertex="1">
          <mxGeometry x="400" y="160" width="80" height="40" as="geometry" />
        </mxCell>
        <mxCell id="hJOSt7ZwOHZE09GMLPBg-39" style="edgeStyle=orthogonalEdgeStyle;rounded=0;orthogonalLoop=1;jettySize=auto;html=1;exitX=0.5;exitY=1;exitDx=0;exitDy=0;entryX=0.5;entryY=0;entryDx=0;entryDy=0;" parent="1" source="hJOSt7ZwOHZE09GMLPBg-18" target="hJOSt7ZwOHZE09GMLPBg-13" edge="1">
          <mxGeometry relative="1" as="geometry" />
        </mxCell>
        <mxCell id="hJOSt7ZwOHZE09GMLPBg-18" value="$$\text{DEM}_{k1}$$" style="rounded=0;whiteSpace=wrap;html=1;fillColor=#CCE5FF;" parent="1" vertex="1">
          <mxGeometry x="700" y="160" width="80" height="40" as="geometry" />
        </mxCell>
        <mxCell id="hJOSt7ZwOHZE09GMLPBg-29" style="edgeStyle=orthogonalEdgeStyle;rounded=0;orthogonalLoop=1;jettySize=auto;html=1;exitX=0.5;exitY=1;exitDx=0;exitDy=0;entryX=0.5;entryY=0;entryDx=0;entryDy=0;" parent="1" source="hJOSt7ZwOHZE09GMLPBg-19" target="hJOSt7ZwOHZE09GMLPBg-15" edge="1">
          <mxGeometry relative="1" as="geometry" />
        </mxCell>
        <mxCell id="hJOSt7ZwOHZE09GMLPBg-19" value="$$\text{MAC}_{k2}$$" style="rounded=0;whiteSpace=wrap;html=1;fillColor=#CCE5FF;" parent="1" vertex="1">
          <mxGeometry x="220" y="160" width="80" height="40" as="geometry" />
        </mxCell>
        <mxCell id="hJOSt7ZwOHZE09GMLPBg-40" style="edgeStyle=orthogonalEdgeStyle;rounded=0;orthogonalLoop=1;jettySize=auto;html=1;exitX=0.5;exitY=1;exitDx=0;exitDy=0;entryX=0.5;entryY=0;entryDx=0;entryDy=0;" parent="1" source="hJOSt7ZwOHZE09GMLPBg-20" target="hJOSt7ZwOHZE09GMLPBg-14" edge="1">
          <mxGeometry relative="1" as="geometry" />
        </mxCell>
        <mxCell id="hJOSt7ZwOHZE09GMLPBg-20" value="$$\text{MAC}_{k2}$$" style="rounded=0;whiteSpace=wrap;html=1;fillColor=#CCE5FF;" parent="1" vertex="1">
          <mxGeometry x="520" y="160" width="80" height="40" as="geometry" />
        </mxCell>
        <mxCell id="hJOSt7ZwOHZE09GMLPBg-43" style="edgeStyle=orthogonalEdgeStyle;rounded=0;orthogonalLoop=1;jettySize=auto;html=1;exitX=0;exitY=0.5;exitDx=0;exitDy=0;entryX=1;entryY=0.5;entryDx=0;entryDy=0;" parent="1" source="hJOSt7ZwOHZE09GMLPBg-21" target="hJOSt7ZwOHZE09GMLPBg-18" edge="1">
          <mxGeometry relative="1" as="geometry" />
        </mxCell>
        <mxCell id="hJOSt7ZwOHZE09GMLPBg-21" value="$$\text{MAC}_{k2}$$" style="rounded=0;whiteSpace=wrap;html=1;fillColor=#CCE5FF;" parent="1" vertex="1">
          <mxGeometry x="820" y="160" width="80" height="40" as="geometry" />
        </mxCell>
        <mxCell id="hJOSt7ZwOHZE09GMLPBg-22" value="scheme N1" style="rounded=0;whiteSpace=wrap;html=1;fillColor=none;strokeColor=none;" parent="1" vertex="1">
          <mxGeometry x="40" y="244" width="90" height="36" as="geometry" />
        </mxCell>
        <mxCell id="hJOSt7ZwOHZE09GMLPBg-23" value="scheme N2" style="rounded=0;whiteSpace=wrap;html=1;fillColor=none;strokeColor=none;" parent="1" vertex="1">
          <mxGeometry x="340" y="244" width="90" height="36" as="geometry" />
        </mxCell>
        <mxCell id="hJOSt7ZwOHZE09GMLPBg-24" value="scheme N3" style="rounded=0;whiteSpace=wrap;html=1;fillColor=none;strokeColor=none;" parent="1" vertex="1">
          <mxGeometry x="640" y="244" width="90" height="36" as="geometry" />
        </mxCell>
      </root>
    </mxGraphModel>
  </diagram>
</mxfile>
